<?xml version="1.0" encoding="UTF-8"?>
<svg xmlns="http://www.w3.org/2000/svg" width="1200" height="860" viewBox="0 0 1200 860">
  <defs>
    <linearGradient id="bg" x1="0" y1="0" x2="1" y2="1">
      <stop offset="0%" stop-color="#0f2118"/>
      <stop offset="55%" stop-color="#8b1e24"/>
      <stop offset="100%" stop-color="#d8a82d"/>
    </linearGradient>
    <radialGradient id="light" cx="74%" cy="30%" r="60%">
      <stop offset="0%" stop-color="#fff7d1" stop-opacity=".34"/>
      <stop offset="60%" stop-color="#fff7d1" stop-opacity=".08"/>
      <stop offset="100%" stop-color="#000" stop-opacity="0"/>
    </radialGradient>
    <pattern id="pattern" width="90" height="90" patternUnits="userSpaceOnUse" patternTransform="rotate(28)">
      <rect width="90" height="90" fill="transparent"/>
      <path d="M0 45h90M45 0v90" stroke="#fff7d1" stroke-opacity=".12" stroke-width="5"/>
    </pattern>
  </defs>
  <rect width="1200" height="860" fill="url(#bg)"/>
  <rect width="1200" height="860" fill="url(#pattern)"/>
  <circle cx="920" cy="220" r="380" fill="url(#light)"/>
  <path d="M760 0c-90 150-65 290 75 415 120 108 155 232 75 445h290V0z" fill="#000" opacity=".16"/>
  <rect x="650" y="260" width="360" height="300" rx="22" fill="#f7d98a" opacity=".9"/><rect x="670" y="350" width="320" height="14" fill="#5b2b12" opacity=".7"/><rect x="670" y="455" width="320" height="14" fill="#5b2b12" opacity=".7"/>
  <rect x="700" y="330" width="72" height="110" rx="18" fill="#8b1e24" opacity=".95"/><rect x="712" y="312" width="48" height="28" rx="8" fill="#f8e7bb"/>
  <rect x="820" y="330" width="72" height="110" rx="18" fill="#0c6b43" opacity=".95"/><rect x="832" y="312" width="48" height="28" rx="8" fill="#f8e7bb"/>
  <path d="M920 420c80-30 120 10 190-20v170c-70 35-120-5-190 24z" fill="#eab308" opacity=".92"/><path d="M945 450h140M945 500h150M945 550h130" stroke="#7f1d1d" stroke-width="12" opacity=".55"/>
  <rect width="1200" height="860" fill="url(#bg)" opacity=".08"/>
  <path d="M0 0h560v860H0z" fill="#050505" opacity=".38"/>
</svg>