<svg xmlns="http://www.w3.org/2000/svg" width="1200" height="900" viewBox="0 0 1200 900" role="img" aria-label="Consultation médicale en ligne sans texte">
  <defs>
    <linearGradient id="bg" x1="0" y1="0" x2="1" y2="1">
      <stop offset="0" stop-color="#062315"/>
      <stop offset="0.5" stop-color="#0b0b08"/>
      <stop offset="1" stop-color="#4a0711"/>
    </linearGradient>
    <radialGradient id="glow" cx="45%" cy="35%" r="65%">
      <stop offset="0" stop-color="#f4c542" stop-opacity="0.28"/>
      <stop offset="0.55" stop-color="#0f8a4c" stop-opacity="0.18"/>
      <stop offset="1" stop-color="#0b0b08" stop-opacity="0"/>
    </radialGradient>
  </defs>
  <rect width="1200" height="900" fill="url(#bg)"/>
  <rect width="1200" height="900" fill="url(#glow)"/>
  <circle cx="230" cy="170" r="90" fill="#f4c542" opacity="0.12"/>
  <circle cx="980" cy="720" r="140" fill="#0f8a4c" opacity="0.18"/>
  <g fill="none" stroke-linecap="round" stroke-linejoin="round">
    <rect x="315" y="205" width="570" height="410" rx="46" fill="#ffffff" opacity="0.12" stroke="#ffffff" stroke-opacity="0.28" stroke-width="8"/>
    <rect x="360" y="250" width="480" height="280" rx="28" fill="#ffffff" opacity="0.08" stroke="#f4c542" stroke-opacity="0.45" stroke-width="6"/>
    <path d="M470 400h84m-42-42v84" stroke="#f4c542" stroke-width="32"/>
    <path d="M670 352c54 0 96 40 96 91 0 76-96 132-96 132s-96-56-96-132c0-51 42-91 96-91z" fill="#0f8a4c" opacity="0.72" stroke="#f4c542" stroke-opacity="0.72" stroke-width="6"/>
    <path d="M510 660h180" stroke="#f4c542" stroke-width="18" opacity="0.9"/>
    <path d="M435 720c74 42 178 58 292 32 85-19 156-59 209-112" stroke="#ffffff" stroke-opacity="0.28" stroke-width="20"/>
    <path d="M260 635c54 38 108 58 162 62" stroke="#0f8a4c" stroke-width="22" opacity="0.8"/>
    <circle cx="940" cy="284" r="34" fill="#f4c542" opacity="0.78"/>
    <path d="M940 318v82c0 42-31 74-72 74h-24" stroke="#f4c542" stroke-width="18" opacity="0.78"/>
  </g>
</svg>
