<?xml version="1.0" encoding="UTF-8"?>
<svg xmlns="http://www.w3.org/2000/svg" width="1200" height="860" viewBox="0 0 1200 860">
  <defs>
    <linearGradient id="bg" x1="0" y1="0" x2="1" y2="1">
      <stop offset="0%" stop-color="#11110f"/>
      <stop offset="55%" stop-color="#7f1d1d"/>
      <stop offset="100%" stop-color="#15803d"/>
    </linearGradient>
    <radialGradient id="light" cx="74%" cy="30%" r="60%">
      <stop offset="0%" stop-color="#fff7d1" stop-opacity=".34"/>
      <stop offset="60%" stop-color="#fff7d1" stop-opacity=".08"/>
      <stop offset="100%" stop-color="#000" stop-opacity="0"/>
    </radialGradient>
    <pattern id="pattern" width="90" height="90" patternUnits="userSpaceOnUse" patternTransform="rotate(28)">
      <rect width="90" height="90" fill="transparent"/>
      <path d="M0 45h90M45 0v90" stroke="#fff7d1" stroke-opacity=".12" stroke-width="5"/>
    </pattern>
  </defs>
  <rect width="1200" height="860" fill="url(#bg)"/>
  <rect width="1200" height="860" fill="url(#pattern)"/>
  <circle cx="920" cy="220" r="380" fill="url(#light)"/>
  <path d="M760 0c-90 150-65 290 75 415 120 108 155 232 75 445h290V0z" fill="#000" opacity=".16"/>
  <rect x="690" y="330" width="360" height="230" rx="28" fill="#d97706" opacity=".95"/><path d="M815 330v-55h110v55" stroke="#f8e7bb" stroke-width="24" fill="none"/><rect x="690" y="410" width="360" height="34" fill="#111827" opacity=".3"/>
  <path d="M930 360l60 25 60-25 25 60-25 60-60-25-60 25-25-60z" fill="#facc15" opacity=".94"/><path d="M965 420l45 45 80-95" stroke="#111827" stroke-width="20" fill="none" stroke-linecap="round" stroke-linejoin="round"/>
  <circle cx="820" cy="520" r="75" fill="#065f46" opacity=".92"/><circle cx="820" cy="520" r="57" fill="none" stroke="#fff7d1" stroke-width="7" opacity=".4"/>
  <rect width="1200" height="860" fill="url(#bg)" opacity=".08"/>
  <path d="M0 0h560v860H0z" fill="#050505" opacity=".38"/>
</svg>