<?xml version="1.0" encoding="UTF-8"?>
<svg xmlns="http://www.w3.org/2000/svg" width="1200" height="860" viewBox="0 0 1200 860">
  <defs>
    <linearGradient id="bg" x1="0" y1="0" x2="1" y2="1">
      <stop offset="0%" stop-color="#102018"/>
      <stop offset="55%" stop-color="#064e3b"/>
      <stop offset="100%" stop-color="#d6a72b"/>
    </linearGradient>
    <radialGradient id="light" cx="74%" cy="30%" r="60%">
      <stop offset="0%" stop-color="#fff7d1" stop-opacity=".34"/>
      <stop offset="60%" stop-color="#fff7d1" stop-opacity=".08"/>
      <stop offset="100%" stop-color="#000" stop-opacity="0"/>
    </radialGradient>
    <pattern id="pattern" width="90" height="90" patternUnits="userSpaceOnUse" patternTransform="rotate(28)">
      <rect width="90" height="90" fill="transparent"/>
      <path d="M0 45h90M45 0v90" stroke="#fff7d1" stroke-opacity=".12" stroke-width="5"/>
    </pattern>
  </defs>
  <rect width="1200" height="860" fill="url(#bg)"/>
  <rect width="1200" height="860" fill="url(#pattern)"/>
  <circle cx="920" cy="220" r="380" fill="url(#light)"/>
  <path d="M760 0c-90 150-65 290 75 415 120 108 155 232 75 445h290V0z" fill="#000" opacity=".16"/>
  <path d="M670 400h170c45 0 70 25 70 55v130H740c-35 0-55-18-70-42z" fill="#f5d36a" opacity=".94"/><path d="M910 400h170v185H970c-25 0-45 12-60 35z" fill="#fff7d1" opacity=".88"/>
  <path d="M840 330l160-70 165 70-165 70z" fill="#111827"/><path d="M920 390v80c70 40 130 40 200 0v-80" fill="#1f2937"/>
  <circle cx="900" cy="470" r="70" fill="#7f1d1d" opacity=".92"/><circle cx="900" cy="470" r="52" fill="none" stroke="#fff7d1" stroke-width="7" opacity=".4"/>
  <rect width="1200" height="860" fill="url(#bg)" opacity=".08"/>
  <path d="M0 0h560v860H0z" fill="#050505" opacity=".38"/>
</svg>