<?xml version="1.0" encoding="UTF-8"?>
<svg xmlns="http://www.w3.org/2000/svg" width="1200" height="860" viewBox="0 0 1200 860">
  <defs>
    <linearGradient id="bg" x1="0" y1="0" x2="1" y2="1">
      <stop offset="0%" stop-color="#140b0b"/>
      <stop offset="55%" stop-color="#7f1d1d"/>
      <stop offset="100%" stop-color="#f59e0b"/>
    </linearGradient>
    <radialGradient id="light" cx="74%" cy="30%" r="60%">
      <stop offset="0%" stop-color="#fff7d1" stop-opacity=".34"/>
      <stop offset="60%" stop-color="#fff7d1" stop-opacity=".08"/>
      <stop offset="100%" stop-color="#000" stop-opacity="0"/>
    </radialGradient>
    <pattern id="pattern" width="90" height="90" patternUnits="userSpaceOnUse" patternTransform="rotate(28)">
      <rect width="90" height="90" fill="transparent"/>
      <path d="M0 45h90M45 0v90" stroke="#fff7d1" stroke-opacity=".12" stroke-width="5"/>
    </pattern>
  </defs>
  <rect width="1200" height="860" fill="url(#bg)"/>
  <rect width="1200" height="860" fill="url(#pattern)"/>
  <circle cx="920" cy="220" r="380" fill="url(#light)"/>
  <path d="M760 0c-90 150-65 290 75 415 120 108 155 232 75 445h290V0z" fill="#000" opacity=".16"/>
  <rect x="680" y="300" width="170" height="300" rx="22" fill="#111827"/><circle cx="765" cy="395" r="50" fill="#374151"/><circle cx="765" cy="515" r="66" fill="#1f2937"/><circle cx="765" cy="515" r="28" fill="#facc15"/>
  <path d="M920 340v170" stroke="#facc15" stroke-width="24" stroke-linecap="round"/><path d="M920 340c60-35 115-15 165-50v80c-60 35-115 15-165 50z" fill="#facc15"/><circle cx="898" cy="525" r="45" fill="#facc15"/>
  <circle cx="820" cy="520" r="80" fill="#15803d" opacity=".92"/><circle cx="820" cy="520" r="62" fill="none" stroke="#fff7d1" stroke-width="7" opacity=".4"/>
  <rect width="1200" height="860" fill="url(#bg)" opacity=".08"/>
  <path d="M0 0h560v860H0z" fill="#050505" opacity=".38"/>
</svg>