<?xml version="1.0" encoding="UTF-8"?>
<svg xmlns="http://www.w3.org/2000/svg" width="1200" height="860" viewBox="0 0 1200 860">
  <defs>
    <linearGradient id="bg" x1="0" y1="0" x2="1" y2="1">
      <stop offset="0%" stop-color="#0f172a"/>
      <stop offset="55%" stop-color="#0f766e"/>
      <stop offset="100%" stop-color="#f59e0b"/>
    </linearGradient>
    <radialGradient id="light" cx="74%" cy="30%" r="60%">
      <stop offset="0%" stop-color="#fff7d1" stop-opacity=".34"/>
      <stop offset="60%" stop-color="#fff7d1" stop-opacity=".08"/>
      <stop offset="100%" stop-color="#000" stop-opacity="0"/>
    </radialGradient>
    <pattern id="pattern" width="90" height="90" patternUnits="userSpaceOnUse" patternTransform="rotate(28)">
      <rect width="90" height="90" fill="transparent"/>
      <path d="M0 45h90M45 0v90" stroke="#fff7d1" stroke-opacity=".12" stroke-width="5"/>
    </pattern>
  </defs>
  <rect width="1200" height="860" fill="url(#bg)"/>
  <rect width="1200" height="860" fill="url(#pattern)"/>
  <circle cx="920" cy="220" r="380" fill="url(#light)"/>
  <path d="M760 0c-90 150-65 290 75 415 120 108 155 232 75 445h290V0z" fill="#000" opacity=".16"/>
  <rect x="620" y="260" width="140" height="300" rx="12" fill="#f4d58d" opacity=".94"/><rect x="644" y="295" width="18" height="25" rx="3" fill="#fff7d1" opacity=".75"/><rect x="678" y="295" width="18" height="25" rx="3" fill="#fff7d1" opacity=".75"/><rect x="712" y="295" width="18" height="25" rx="3" fill="#fff7d1" opacity=".75"/><rect x="644" y="350" width="18" height="25" rx="3" fill="#fff7d1" opacity=".75"/><rect x="678" y="350" width="18" height="25" rx="3" fill="#fff7d1" opacity=".75"/><rect x="712" y="350" width="18" height="25" rx="3" fill="#fff7d1" opacity=".75"/><rect x="644" y="405" width="18" height="25" rx="3" fill="#fff7d1" opacity=".75"/><rect x="678" y="405" width="18" height="25" rx="3" fill="#fff7d1" opacity=".75"/><rect x="712" y="405" width="18" height="25" rx="3" fill="#fff7d1" opacity=".75"/><rect x="644" y="460" width="18" height="25" rx="3" fill="#fff7d1" opacity=".75"/><rect x="678" y="460" width="18" height="25" rx="3" fill="#fff7d1" opacity=".75"/><rect x="712" y="460" width="18" height="25" rx="3" fill="#fff7d1" opacity=".75"/>
  <rect x="790" y="210" width="170" height="350" rx="12" fill="#b45309" opacity=".94"/><rect x="814" y="245" width="18" height="25" rx="3" fill="#fff7d1" opacity=".75"/><rect x="848" y="245" width="18" height="25" rx="3" fill="#fff7d1" opacity=".75"/><rect x="882" y="245" width="18" height="25" rx="3" fill="#fff7d1" opacity=".75"/><rect x="814" y="300" width="18" height="25" rx="3" fill="#fff7d1" opacity=".75"/><rect x="848" y="300" width="18" height="25" rx="3" fill="#fff7d1" opacity=".75"/><rect x="882" y="300" width="18" height="25" rx="3" fill="#fff7d1" opacity=".75"/><rect x="814" y="355" width="18" height="25" rx="3" fill="#fff7d1" opacity=".75"/><rect x="848" y="355" width="18" height="25" rx="3" fill="#fff7d1" opacity=".75"/><rect x="882" y="355" width="18" height="25" rx="3" fill="#fff7d1" opacity=".75"/><rect x="814" y="410" width="18" height="25" rx="3" fill="#fff7d1" opacity=".75"/><rect x="848" y="410" width="18" height="25" rx="3" fill="#fff7d1" opacity=".75"/><rect x="882" y="410" width="18" height="25" rx="3" fill="#fff7d1" opacity=".75"/>
  <rect x="995" y="300" width="120" height="260" rx="12" fill="#166534" opacity=".94"/><rect x="1019" y="335" width="18" height="25" rx="3" fill="#fff7d1" opacity=".75"/><rect x="1053" y="335" width="18" height="25" rx="3" fill="#fff7d1" opacity=".75"/><rect x="1087" y="335" width="18" height="25" rx="3" fill="#fff7d1" opacity=".75"/><rect x="1019" y="390" width="18" height="25" rx="3" fill="#fff7d1" opacity=".75"/><rect x="1053" y="390" width="18" height="25" rx="3" fill="#fff7d1" opacity=".75"/><rect x="1087" y="390" width="18" height="25" rx="3" fill="#fff7d1" opacity=".75"/><rect x="1019" y="445" width="18" height="25" rx="3" fill="#fff7d1" opacity=".75"/><rect x="1053" y="445" width="18" height="25" rx="3" fill="#fff7d1" opacity=".75"/><rect x="1087" y="445" width="18" height="25" rx="3" fill="#fff7d1" opacity=".75"/><rect x="1019" y="500" width="18" height="25" rx="3" fill="#fff7d1" opacity=".75"/><rect x="1053" y="500" width="18" height="25" rx="3" fill="#fff7d1" opacity=".75"/><rect x="1087" y="500" width="18" height="25" rx="3" fill="#fff7d1" opacity=".75"/>
  <rect width="1200" height="860" fill="url(#bg)" opacity=".08"/>
  <path d="M0 0h560v860H0z" fill="#050505" opacity=".38"/>
</svg>