<?xml version="1.0" encoding="UTF-8"?>
<svg xmlns="http://www.w3.org/2000/svg" width="1200" height="860" viewBox="0 0 1200 860">
  <defs>
    <linearGradient id="bg" x1="0" y1="0" x2="1" y2="1">
      <stop offset="0%" stop-color="#1a0f0a"/>
      <stop offset="55%" stop-color="#7f1d1d"/>
      <stop offset="100%" stop-color="#d9a52f"/>
    </linearGradient>
    <radialGradient id="light" cx="74%" cy="30%" r="60%">
      <stop offset="0%" stop-color="#fff7d1" stop-opacity=".34"/>
      <stop offset="60%" stop-color="#fff7d1" stop-opacity=".08"/>
      <stop offset="100%" stop-color="#000" stop-opacity="0"/>
    </radialGradient>
    <pattern id="pattern" width="90" height="90" patternUnits="userSpaceOnUse" patternTransform="rotate(28)">
      <rect width="90" height="90" fill="transparent"/>
      <path d="M0 45h90M45 0v90" stroke="#fff7d1" stroke-opacity=".12" stroke-width="5"/>
    </pattern>
  </defs>
  <rect width="1200" height="860" fill="url(#bg)"/>
  <rect width="1200" height="860" fill="url(#pattern)"/>
  <circle cx="920" cy="220" r="380" fill="url(#light)"/>
  <path d="M760 0c-90 150-65 290 75 415 120 108 155 232 75 445h290V0z" fill="#000" opacity=".16"/>
  <circle cx="730" cy="360" r="150" fill="#f8e7bb" opacity=".96"/><circle cx="730" cy="360" r="120" fill="none" stroke="#ffffff" stroke-width="12" opacity=".55"/>
  <circle cx="700" cy="345" r="42" fill="#7f1d1d" opacity=".92"/><circle cx="700" cy="345" r="24" fill="none" stroke="#fff7d1" stroke-width="7" opacity=".4"/>
  <circle cx="780" cy="390" r="50" fill="#0d5f3f" opacity=".92"/><circle cx="780" cy="390" r="32" fill="none" stroke="#fff7d1" stroke-width="7" opacity=".4"/>
  <circle cx="650" cy="430" r="34" fill="#e1b643" opacity=".92"/><circle cx="650" cy="430" r="16" fill="none" stroke="#fff7d1" stroke-width="7" opacity=".4"/>
  <rect width="1200" height="860" fill="url(#bg)" opacity=".08"/>
  <path d="M0 0h560v860H0z" fill="#050505" opacity=".38"/>
</svg>