<?xml version="1.0" encoding="UTF-8"?>
<svg xmlns="http://www.w3.org/2000/svg" width="1200" height="860" viewBox="0 0 1200 860">
  <defs>
    <linearGradient id="bg" x1="0" y1="0" x2="1" y2="1">
      <stop offset="0%" stop-color="#0f172a"/>
      <stop offset="55%" stop-color="#1d4ed8"/>
      <stop offset="100%" stop-color="#f59e0b"/>
    </linearGradient>
    <radialGradient id="light" cx="74%" cy="30%" r="60%">
      <stop offset="0%" stop-color="#fff7d1" stop-opacity=".34"/>
      <stop offset="60%" stop-color="#fff7d1" stop-opacity=".08"/>
      <stop offset="100%" stop-color="#000" stop-opacity="0"/>
    </radialGradient>
    <pattern id="pattern" width="90" height="90" patternUnits="userSpaceOnUse" patternTransform="rotate(28)">
      <rect width="90" height="90" fill="transparent"/>
      <path d="M0 45h90M45 0v90" stroke="#fff7d1" stroke-opacity=".12" stroke-width="5"/>
    </pattern>
  </defs>
  <rect width="1200" height="860" fill="url(#bg)"/>
  <rect width="1200" height="860" fill="url(#pattern)"/>
  <circle cx="920" cy="220" r="380" fill="url(#light)"/>
  <path d="M760 0c-90 150-65 290 75 415 120 108 155 232 75 445h290V0z" fill="#000" opacity=".16"/>
  <path d="M660 480h80l55-75h250l70 75h80v115H660z" fill="#facc15"/><circle cx="765" cy="600" r="42" fill="#111827"/><circle cx="1085" cy="600" r="42" fill="#111827"/><path d="M815 425h190l42 55H775z" fill="#bfdbfe" opacity=".85"/>
  <path d="M610 560h520l120 210H490z" fill="#111827" opacity=".75"/><path d="M870 580v170" stroke="#facc15" stroke-width="10" stroke-dasharray="28 24"/>
  <path d="M930 300c55 0 95 40 95 92 0 70-95 170-95 170s-95-100-95-170c0-52 40-92 95-92z" fill="#7f1d1d"/><circle cx="930" cy="388" r="32" fill="#fff7d1"/>
  <rect width="1200" height="860" fill="url(#bg)" opacity=".08"/>
  <path d="M0 0h560v860H0z" fill="#050505" opacity=".38"/>
</svg>