<?xml version="1.0" encoding="UTF-8"?>
<svg xmlns="http://www.w3.org/2000/svg" width="1200" height="860" viewBox="0 0 1200 860">
  <defs>
    <linearGradient id="bg" x1="0" y1="0" x2="1" y2="1">
      <stop offset="0%" stop-color="#081c15"/>
      <stop offset="55%" stop-color="#0f766e"/>
      <stop offset="100%" stop-color="#facc15"/>
    </linearGradient>
    <radialGradient id="light" cx="74%" cy="30%" r="60%">
      <stop offset="0%" stop-color="#fff7d1" stop-opacity=".34"/>
      <stop offset="60%" stop-color="#fff7d1" stop-opacity=".08"/>
      <stop offset="100%" stop-color="#000" stop-opacity="0"/>
    </radialGradient>
    <pattern id="pattern" width="90" height="90" patternUnits="userSpaceOnUse" patternTransform="rotate(28)">
      <rect width="90" height="90" fill="transparent"/>
      <path d="M0 45h90M45 0v90" stroke="#fff7d1" stroke-opacity=".12" stroke-width="5"/>
    </pattern>
  </defs>
  <rect width="1200" height="860" fill="url(#bg)"/>
  <rect width="1200" height="860" fill="url(#pattern)"/>
  <circle cx="920" cy="220" r="380" fill="url(#light)"/>
  <path d="M760 0c-90 150-65 290 75 415 120 108 155 232 75 445h290V0z" fill="#000" opacity=".16"/>
  <rect x="720" y="260" width="180" height="320" rx="34" fill="#101010"/><rect x="738" y="294" width="144" height="252" rx="22" fill="#dcfce7"/><path d="M774 410h72M774 455h72" stroke="#047857" stroke-width="14" stroke-linecap="round"/>
  <circle cx="960" cy="350" r="70" fill="#f5c542" opacity=".92"/><circle cx="960" cy="350" r="52" fill="none" stroke="#fff7d1" stroke-width="7" opacity=".4"/>
  <circle cx="620" cy="440" r="52" fill="#d97706" opacity=".92"/><circle cx="620" cy="440" r="34" fill="none" stroke="#fff7d1" stroke-width="7" opacity=".4"/>
  <rect width="1200" height="860" fill="url(#bg)" opacity=".08"/>
  <path d="M0 0h560v860H0z" fill="#050505" opacity=".38"/>
</svg>